<svg width="32" height="30" viewBox="0 0 32 30" xmlns="http://www.w3.org/2000/svg">
    <g fill-rule="evenodd">
        <path d="M26.147 13.17c0 2.185-1.948 3.957-4.36 3.983a17.347 17.347 0 0 1-.452-3.983c0-1.417.162-2.762.452-3.983 2.412.028 4.36 1.8 4.36 3.983z"/>
        <path d="M6.022 7.47h5.617L23.27.573l-.023.025A3.928 3.928 0 0 1 24.85.233c3.82 0 6.92 5.792 6.92 12.938 0 7.146-3.1 12.938-6.92 12.938-.504 0-.994-.106-1.467-.298 0 .002.01.01.01.01l-11.737-6.95H6.022a5.7 5.7 0 0 1 0-11.4zm18.213 15.68c2.997 0 5.428-4.467 5.428-9.98 0-5.512-2.43-9.98-5.428-9.98-3 0-5.43 4.468-5.43 9.98 0 5.513 2.43 9.98 5.43 9.98z"/>
        <path d="M11.034 20.625v7.29c0 1.767-1.09 1.852-2.44 1.852-1.345 0-2.437-.084-2.437-1.853v-7.3c.07.003.135.01.205.01h4.672z"/>
    </g>
</svg>
