<svg xmlns="http://www.w3.org/2000/svg" xmlns:xlink="http://www.w3.org/1999/xlink" version="1.1" x="0px" y="0px" viewBox="0 0 100 125" enable-background="new 0 0 100 100" xml:space="preserve">
<path fill-rule="evenodd" clip-rule="evenodd" fill="#000000" d="M85.4,15.7H14.6c-5.3,0-9.6,4.4-9.6,9.8v49c0,5.4,4.3,9.8,9.6,9.8  h70.7c5.3,0,9.6-4.4,9.6-9.8v-49C95,20.1,90.7,15.7,85.4,15.7z M32.3,28.8c5.4,0,9.7,4.4,9.7,9.9c0,5.4-4.3,9.9-9.7,9.9  s-9.7-4.4-9.7-9.9C22.6,33.2,27,28.8,32.3,28.8z M47.8,76.1H16.8c-1.8,0-3.3-1.3-3.8-3c1.1-11.6,9.3-20.7,19.3-20.7  c10,0,18.2,9,19.3,20.7C51.2,74.8,49.7,76.1,47.8,76.1z M82.1,48.4H53.2c-1.8,0-3.2-1.5-3.2-3.3c0-1.8,1.4-3.3,3.2-3.3h28.9  c1.8,0,3.2,1.5,3.2,3.3C85.4,46.9,83.9,48.4,82.1,48.4z M82.1,35.3H53.2c-1.8,0-3.2-1.5-3.2-3.3c0-1.8,1.4-3.3,3.2-3.3h28.9  c1.8,0,3.2,1.5,3.2,3.3C85.4,33.8,83.9,35.3,82.1,35.3z"/>
</svg>
