<svg xmlns="http://www.w3.org/2000/svg" xmlns:xlink="http://www.w3.org/1999/xlink" version="1.1" x="0px" y="0px" viewBox="0 0 24 30" enable-background="new 0 0 24 24" xml:space="preserve">
<path fill="#4A90E2" d="M12,0C5.373,0,0,5.373,0,12c0,6.627,5.373,12,12,12c6.627,0,12-5.373,12-12C24,5.373,18.627,0,12,0z M12,22  c-1.104,0-2-0.896-2-2s0.896-2,2-2s2,0.896,2,2S13.104,22,12,22z M15.479,12.99C14.525,13.817,14,14.273,14,16h-4  c0-3.552,1.719-5.043,2.856-6.031C13.688,9.247,14,8.976,14,8c0-1.103-0.897-2-2-2c-1.103,0-2,0.897-2,2H6c0-3.309,2.691-6,6-6  s6,2.691,6,6C18,10.801,16.542,12.066,15.479,12.99z"/>
</svg>
