<svg xmlns="http://www.w3.org/2000/svg" xmlns:xlink="http://www.w3.org/1999/xlink" version="1.1" x="0px" y="0px" viewBox="0 0 100 125" enable-background="new 0 0 100 100" xml:space="preserve">
<path fill="#A90317" d="M69,51c9.4-19.3,10.2-37.3,10.2-38.4l0.1-4.3H20.7l0.1,4.3c0,1.1,0.8,19.1,10.2,38.4l-13.9,2l16.4,16  l-3.9,22.6L50,81l20.3,10.7l-3.9-22.6l16.4-16L69,51z M60.6,63.1l-3.1,3.1l0.7,4.3l1,6l-5.4-2.8l-3.9-2l-3.9,2l-5.4,2.8l1-6l0.7-4.3  l-3.1-3.1L35,58.9l6-0.9l4.3-0.6l1.9-3.9L50,48l2.7,5.4l1.9,3.9L59,58l6,0.9L60.6,63.1z"/>
</svg>
