<svg width="27" height="34" viewBox="0 0 27 34" xmlns="http://www.w3.org/2000/svg">
    <title>
        Veteran
    </title>
    <path d="M21.048 17.405c3.804-7.812 4.128-15.098 4.128-15.543l.04-1.74H1.5l.04 1.74c0 .445.324 7.73 4.13 15.543l-5.628.81 6.64 6.475-1.58 9.148 8.257-4.29 8.217 4.33-1.58-9.147 6.64-6.475-5.586-.85zm-3.4 4.897l-1.255 1.255.283 1.74.405 2.43-2.185-1.134-1.578-.81-1.58.81-2.185 1.133.405-2.428.283-1.74L8.986 22.3l-1.7-1.7 2.428-.364 1.74-.243.77-1.578 1.133-2.227 1.093 2.186.77 1.58 1.78.282 2.43.364-1.782 1.7z" fill="#000" fill-rule="evenodd"/>
</svg>
