<svg width="35" height="35" viewBox="0 0 35 35" xmlns="http://www.w3.org/2000/svg">
    <g fill="#FFF" fill-rule="evenodd">
        <path d="M17.5 2.5c8.285 0 15 6.716 15 15 0 8.285-6.715 15-15 15-8.284 0-15-6.715-15-15 0-8.284 6.716-15 15-15zm0-2.5C7.85 0 0 7.85 0 17.5S7.85 35 17.5 35 35 27.15 35 17.5 27.15 0 17.5 0z"/>
        <path d="M11.5 16.537a3.72 3.72 0 0 1-3.58-2.677 1.25 1.25 0 1 1 2.394-.718c.16.535.637.895 1.187.895s1.027-.36 1.188-.895a1.25 1.25 0 1 1 2.394.718 3.72 3.72 0 0 1-3.58 2.677zM23.5 16.537a3.72 3.72 0 0 1-3.582-2.677 1.25 1.25 0 1 1 2.395-.718c.16.535.637.895 1.186.895.55 0 1.025-.36 1.186-.895a1.25 1.25 0 1 1 2.394.718 3.72 3.72 0 0 1-3.58 2.677zM17.5 27.415a12.886 12.886 0 0 1-8.534-3.23 1.25 1.25 0 1 1 1.654-1.872 10.39 10.39 0 0 0 6.88 2.602c2.537 0 4.98-.925 6.88-2.602a1.25 1.25 0 1 1 1.655 1.873 12.886 12.886 0 0 1-8.535 3.23v-.002z"/>
    </g>
</svg>
