<svg xmlns="http://www.w3.org/2000/svg" viewBox="0 0 100 100">
  <path fill="none" stroke="#fff" stroke-width="3" stroke-miterlimit="10" d="M70.25 19.8h7.5c3.3 0 6 2.7 6 6v61.625c0 3.3-2.7 6-6 6h-55.5c-3.3 0-6-2.7-6-6V25.8c0-3.3 2.7-6 6-6h7.625"/>
  <path fill="#fff" d="M66.344 15.5l-6.093-2.3S57.377 5.3 50 5.3s-10.583 7.9-10.583 7.9l-5.76 2.3c-.55 0-1 .45-1 1v12.188c0 .55.45 1 1 1h32.688c.55 0 1-.45 1-1V16.5c0-.55-.45-1-1-1zM50 20.217a4.76 4.76 0 1 1 0-9.517 4.76 4.76 0 0 1 0 9.516zM40.07 42.897l-.073-.1a1.002 1.002 0 0 0-1.397-.222l-4.497 3.266-3.224-4.526a1.004 1.004 0 0 0-1.396-.235l-.102.072c-.448.32-.554.947-.235 1.395l3.235 4.544-4.513 3.28a1.002 1.002 0 0 0-.222 1.396l.073.1c.324.446.953.546 1.398.222l4.497-3.266 3.224 4.527c.318.447.946.553 1.394.234l.102-.073c.448-.318.554-.946.234-1.394l-3.235-4.544 4.513-3.278c.445-.324.545-.952.222-1.397zM76.624 61.563l-5.55-.315.37-5.546a1.003 1.003 0 0 0-.933-1.064l-.124-.008a1.003 1.003 0 0 0-1.064.932l-.37 5.566-5.568-.316a1.003 1.003 0 0 0-1.055.942l-.008.125c-.03.548.393 1.023.942 1.054l5.55.315-.37 5.545c-.035.55.384 1.028.933 1.064l.125.007a1.003 1.003 0 0 0 1.064-.932l.37-5.566 5.568.315c.55.03 1.024-.393 1.055-.942l.006-.125a1.002 1.002 0 0 0-.942-1.055zM57.998 77.186l-4.06-3.824 3.786-4.096a1.003 1.003 0 0 0-.056-1.413l-.092-.085a1.003 1.003 0 0 0-1.413.056l-3.772 4.082-4.045-3.81a1.004 1.004 0 0 0-1.414.04l-.085.092c-.377.4-.358 1.036.042 1.414l4.06 3.824-3.786 4.096a1.003 1.003 0 0 0 .057 1.413l.092.085c.403.373 1.04.348 1.412-.056l3.772-4.082 4.046 3.81c.4.378 1.036.36 1.414-.04l.086-.092c.377-.4.358-1.037-.042-1.414z"/>
  <path fill="#fff" d="M65.97 44.46c-.51-.663-15.142.103-15.142.103a.987.987 0 0 0-.984.984c0 .54.443.984.984.984l10.297-.343c-8.01 3.57-16.802 9.835-21.81 15.74-.243.29-.7.683-1.048 1.04-1.104-.92-2.69-1.167-4.24-1.167-3.515 0-7.366 3.95-7.366 7.467 0 3.516 3.85 7.567 7.368 7.567 3.516 0 7.467-4.05 7.467-7.567 0-1.517-.793-3.732-1.678-4.826 7.91-7.898 13.65-11.49 22.532-16.934.222.125-3.443 7.753-3.443 7.753-.583 1.21-.005 1.49.284 1.82 0 0 .467.125.748.125s.59-.19.914-1c0-.002 5.627-11.08 5.117-11.744zM34.02 74.798c-2.302 0-5.267-2.86-5.267-5.767 0-2.302 2.966-5.267 5.267-5.267s5.367 2.425 5.367 5.267c0 2.783-3.065 5.767-5.367 5.767zm5.795-10.358l.115-.113-.115.112z"/>
</svg>
