<svg xmlns="http://www.w3.org/2000/svg" viewBox="0 0 612 792">
    <path fill="#ffffff" d="M306.4 90C137.2 90 0 227.2 0 396.4s137.2 306.4 306.4 306.4 306.4-137.2 306.4-306.4S475.7 90 306.4 90zm34 483.2c-9.6 9.6-21.8 13.9-34.8 13.9s-25.2-4.4-34.8-13.9c-9.6-9.6-14.8-20.9-14.8-34 0-12.2 5.2-24.4 14.8-34 9.6-9.6 21.8-14.8 34.8-14.8 13.9 0 25.2 5.2 34.8 14.8 9.6 9.6 14.8 20.9 14.8 34 0 13.1-5.2 24.4-14.8 34zm12.2-290.8c-2.6 13.1-6.1 26.1-8.7 40-4.4 14.8-8.7 33.1-13.1 54.8-4.4 21.8-9.6 49.6-14.8 82.7h-20c-5.2-33.1-10.4-60.1-14.8-82.7s-8.7-40.9-12.2-55.7c-3.5-15.7-7-29.6-9.6-40.9-2.6-11.3-3.5-20.9-3.5-27.9-.9-13.9 4.4-25.2 14.8-34 10.4-9.6 21.8-13.9 35.7-13.9 13.9 0 26.1 4.4 35.7 13.9 9.6 9.6 14.8 20.9 14.8 34 0 7.1-1.7 16.6-4.3 29.7z"/>
</svg>
