<svg xmlns="http://www.w3.org/2000/svg" viewBox="0 0 21 17">
    <title>
        Assaultive - General
    </title>
    <path fill="#000000" d="M19.5 9c.8 0 1.5-.7 1.5-1.5S20.3 6 19.5 6H14v3h5.5zM18.5 5c.8 0 1.5-.7 1.5-1.5S19.3 2 18.5 2H14v3h4.5zM20 15.5c0-.8-.7-1.5-1.5-1.5h-4c-.8 0-1.5.7-1.5 1.5s.7 1.5 1.5 1.5h4c.8 0 1.5-.7 1.5-1.5zM13 11.5c0 .8.7 1.5 1.5 1.5h5c.8 0 1.5-.7 1.5-1.5s-.7-1.5-1.5-1.5h-5c-.8 0-1.5.7-1.5 1.5zM12 15.5c0-.8.4-1.5 1-2-.6-.5-1-1.2-1-2 0-.2 0-.4.1-.6-.2 0-.4.1-.6.1C10.1 11 9 9.9 9 8.5V7.3C8.2 8.3 6.9 9 5.5 9c-.3 0-.5-.2-.5-.5s.2-.5.5-.5C7.4 8 9 6.4 9 4.5V4c0-.3.2-.5.5-.5s.5.2.5.5v4.5c0 .8.7 1.5 1.5 1.5S13 9.3 13 8.5V2c0-1.1-.9-2-2-2H9.5C5.9 0 3 2 3 4.5v1c0 .3-.2.5-.5.5S2 5.8 2 5.5V4H0v11h3c0 1.1 1.3 2 3 2h6.5c-.3-.4-.5-.9-.5-1.5z"/>
</svg>
