<svg data-name="Layer 1" xmlns="http://www.w3.org/2000/svg" viewBox="0 0 430.83 511.98">
    <title>
        Assaultive to Law Enforcement
    </title>
    <path fill="#000000" d="M383.54 211.18c-20.4-55.47 4.65-80.5 26.15-102.9l18.31-19L323.14.56l-.28.28c-.31-.28-.62-.56-1-.84-.31.34-.66.69-1 1h1.81c-10.34 11-25.19 40.41-51.53 40.41-26.12 0-43.65-29.37-55.62-40v-.32a.81.81 0 0 1-.19.16h-.06v.06c-12 10.66-29.5 40-55.65 40s-40.78-28.75-51.15-40.03h1.47c-.35-.34-.66-.69-1-1-.28.22-.53.47-.78.69-.16-.16-.31-.34-.47-.5L2.81 89.12l18.31 19.06c21.5 22.41 46.59 47.4 26.16 102.9C29.15 260.33 0 288.77 0 327.74c0 69.62 44.59 120.9 122.34 140.65 55.9 14.22 64.34 20.28 92.93 43.47 0 0 .06 0 .09-.06a1.38 1.38 0 0 0 .22.19c28.59-23.19 37-29.25 92.93-43.47 77.75-19.78 122.31-71 122.31-140.69 0-38.96-29.15-67.4-47.28-116.65zm-119.62 120l-48.5-25.72-48.52 25.72 9.25-54.44-39.22-38.5 54.22-7.94 24.28-49.53 24.25 49.53 54.22 7.94-39.22 38.5z"/>
</svg>
