<svg version="1" xmlns="http://www.w3.org/2000/svg" viewBox="0 0 100 70.66625">
    <path fill="#000000" d="M99.995 28.08c-.002-.042-.006-.082-.01-.123 0-.02-.002-.042-.004-.062-.002-.03-.007-.06-.01-.09a1.735 1.735 0 0 0-.017-.116 3.745 3.745 0 0 0-1.045-2.057c-3.19-3.78-6.985-7.146-10.844-10.22-8.31-6.62-17.816-12.16-28.308-14.39C53.692-.268 47.59-.322 41.494.768c-5.545.99-10.89 3.053-15.89 5.61-7.83 4-14.98 9.514-21.21 15.697-1.153 1.144-2.3 2.312-3.348 3.555-1.396 1.654-1.396 3.613 0 5.267 3.19 3.78 6.985 7.144 10.844 10.218 8.312 6.622 17.817 12.16 28.31 14.39 6.063 1.29 12.166 1.345 18.262.255 5.544-.992 10.888-3.054 15.89-5.61 7.83-4 14.98-9.515 21.21-15.698 1.153-1.145 2.3-2.312 3.348-3.555a3.748 3.748 0 0 0 1.06-2.174c.005-.03.01-.06.013-.09l.005-.06.01-.123c.002-.062.004-.124.004-.187s-.004-.124-.007-.186zM50 47.507c-10.627 0-19.24-8.614-19.24-19.24C30.76 17.64 39.372 9.024 50 9.024s19.24 8.614 19.24 19.24c0 10.628-8.613 19.242-19.24 19.242z"/>
    <circle fill="#000000" cx="50" cy="28.266" r="6.369"/>
</svg>
