<svg xmlns="http://www.w3.org/2000/svg" viewBox="0 0 512 640">
    <path fill="#ffffff" fill-rule="evenodd" clip-rule="evenodd" d="M485.15 110.937c-11.082-8.02-22.853.02-25.895 7.354 86.375 7.46 34.625 95.647 50.688 213.836 3.04 22.313 6.313 92.084-18.854 104.73-19.418 9.77-27.44 33.333-27.44 33.333s-50.81-119.42-45.686-155.69c9.666-68.48 20.27-138.355-60.584-122.646-24.042-1.313-148.604-19.48-220.02-8.21C87.336 197.063 95.46 262 95.46 309.105c0 55.5-20.167 50.417-34.042 167.98-72.375-15.02-57.27-108.5-49.938-185.52 3.5-36.835-20.917-92.647-7.333-112.147 39.915-45.834 76.353-76.334 76.353-76.334 82.542-79.5 180.084-75.46 233.334-57.167 15.375 4.375 88 39.104 88 39.104 36.043-1.23 57.314-26.875 83.314 25.917z"/>
</svg>
